<svg xmlns="http://www.w3.org/2000/svg" width="1024" height="768" viewBox="0 0 1024 768" version="1.1">
	<path d="M 725 97.616 C 709.510 100.625, 706.358 101.343, 700.952 103.091 C 689.764 106.709, 680.185 113.001, 675.029 120.118 C 673.509 122.216, 671.944 123.610, 671.550 123.216 C 671.156 122.822, 670.942 122.950, 671.075 123.500 C 671.383 124.772, 670.062 128.057, 668.460 130 C 666.830 131.977, 662 145.554, 662 148.158 C 662 149.965, 661.180 152.230, 657.891 159.500 C 656.510 162.555, 655.145 171.028, 656.133 170.417 C 656.610 170.123, 657 170.499, 657 171.254 C 657 172.008, 658.350 173.919, 660 175.500 C 661.650 177.081, 663 178.859, 663 179.452 C 663 180.398, 661.713 183.016, 657.567 190.500 C 655.907 193.496, 650.609 201.428, 649.886 202 C 647.584 203.820, 644 210.793, 644 213.452 C 644 216.860, 647.081 220.385, 652.371 223.032 C 656.336 225.015, 656.636 226.510, 654.112 231.706 C 651.720 236.629, 652.030 239.410, 655.156 241.083 C 656.579 241.845, 657.013 242.813, 656.624 244.362 C 655.893 247.275, 656.924 251, 658.462 251 C 659.137 251, 660.472 251.864, 661.427 252.919 C 662.847 254.488, 663.037 255.858, 662.466 260.423 C 661.862 265.259, 662.119 266.722, 664.383 271.351 C 666.432 275.539, 667.866 277.087, 671.010 278.505 C 674.579 280.114, 675.657 280.174, 680.761 279.049 C 686.630 277.755, 694.671 275.445, 698.825 273.861 C 700.104 273.374, 701.636 273.275, 702.229 273.642 C 702.829 274.012, 703.023 273.847, 702.666 273.269 C 701.496 271.376, 706.953 271.174, 709.283 273.024 C 712.208 275.345, 720 290.986, 720 294.534 C 720 295.800, 726.121 296, 764.933 296 C 818.504 296, 814.336 297.481, 805.737 281.500 C 801.600 273.812, 799.976 267.886, 798.012 253.315 C 797.123 246.717, 797.199 243.471, 798.404 236.567 C 799.840 228.344, 803.748 217.726, 805.045 218.528 C 805.387 218.739, 805.667 218.340, 805.667 217.641 C 805.667 216.331, 809.099 211.132, 812.335 207.538 C 813.344 206.417, 814.861 204.150, 815.705 202.500 C 816.550 200.850, 817.828 198.825, 818.546 198 C 819.263 197.175, 821.009 193.046, 822.425 188.824 C 824.594 182.356, 825 179.345, 825 169.702 C 825 157.034, 822.139 143.022, 817.892 134.895 C 816.629 132.478, 815.698 130.129, 815.823 129.676 C 815.947 129.222, 815.621 129.116, 815.097 129.440 C 814.573 129.764, 813.883 129.208, 813.565 128.205 C 812.387 124.494, 799.190 112.741, 790.725 107.863 C 784.056 104.021, 774.969 99.871, 769.824 98.319 C 762.371 96.069, 735.156 95.642, 725 97.616 M 500.783 103.922 C 497.982 105.699, 495.064 108.737, 493.341 111.672 C 490.775 116.043, 490.472 117.554, 490.149 127.629 C 489.858 136.693, 490.117 139.445, 491.545 142.454 C 494.629 148.953, 501.812 151.607, 508.162 148.593 C 512.938 146.327, 515.197 141.976, 515.772 133.941 L 516.256 127.178 544.550 155.339 C 562.996 173.699, 573.083 184.459, 573.532 186.257 C 575.226 193.042, 574.406 194.108, 544.500 224 L 516 252.487 516 226.793 C 516 211.994, 515.537 198.939, 514.908 196.006 C 513.424 189.085, 508.712 183.122, 502.064 179.750 C 497.327 177.348, 495.494 177.001, 487.571 177.008 C 407.913 177.080, 333.883 231.345, 308.054 308.596 C 300.699 330.595, 299.731 337.076, 299.246 367.565 L 298.815 394.630 302.442 397.815 C 306.947 401.770, 313.464 402.230, 318.111 398.921 C 323.288 395.235, 323.724 393.219, 324.259 370.500 C 324.813 346.943, 326.609 335.412, 332.548 317.282 C 344.423 281.032, 369.936 248.324, 402.047 228.183 C 425.546 213.445, 455.127 204.179, 483.250 202.749 L 490 202.405 490.044 230.953 C 490.077 252.173, 490.431 260.463, 491.427 263.252 C 496.135 276.444, 512.373 283.157, 525.025 277.143 C 528.263 275.603, 538.701 265.818, 561.718 242.746 C 599.401 204.972, 598.980 205.573, 598.980 189.500 C 598.980 173.540, 599.216 173.881, 563.181 137.663 C 546.306 120.703, 530.619 105.515, 528.320 103.913 C 524.427 101.200, 523.496 101, 514.766 101 C 506.123 101, 505.032 101.228, 500.783 103.922 M 738.500 104.094 C 706.336 106.561, 687.348 114.400, 678.290 128.950 C 673.794 136.173, 670 145.120, 670 148.500 C 670 150.695, 667.924 156.761, 665.994 160.206 C 664.789 162.356, 663.460 170.742, 664.472 169.805 C 665.613 168.750, 669.930 174.398, 670.620 177.848 C 671.241 180.954, 668.388 188.522, 665.191 192.250 C 664.365 193.212, 663.963 194, 664.296 194 C 665.037 194, 656.070 207.560, 653.116 210.908 L 650.991 213.316 654.020 215.158 C 655.685 216.171, 657.447 217, 657.935 217 C 658.423 217, 659.987 218.385, 661.411 220.077 C 664.339 223.556, 664.674 227.144, 662.545 232.237 C 661.157 235.561, 661.202 235.815, 663.545 237.853 C 666.241 240.197, 666.488 241.220, 665.018 243.966 C 664.267 245.369, 664.444 245.978, 665.768 246.559 C 666.721 246.976, 667.871 247.235, 668.324 247.134 C 668.778 247.033, 668.887 247.373, 668.568 247.890 C 668.249 248.406, 668.553 249.018, 669.244 249.249 C 670.130 249.546, 670.500 252.362, 670.500 258.805 C 670.500 266.886, 670.754 268.194, 672.703 270.145 C 674.885 272.330, 674.969 272.335, 681.703 270.708 C 685.441 269.805, 691.200 268.125, 694.500 266.975 C 697.800 265.825, 701.850 264.504, 703.500 264.038 C 712.876 261.394, 727.978 255.442, 731 253.201 C 735.308 250.007, 735.965 249.094, 735.985 246.285 C 735.993 245.067, 736.870 243.605, 737.934 243.035 C 740.436 241.696, 740.569 241.712, 742.429 243.571 C 744.667 245.810, 744.375 249.168, 741.585 253.279 C 740.257 255.236, 739.470 257.171, 739.835 257.579 C 740.201 257.987, 739.938 257.997, 739.250 257.601 C 738.563 257.206, 738 257.321, 738 257.858 C 738 259.058, 727.377 264.253, 720.211 266.556 C 714.968 268.241, 714.937 268.275, 716.711 270.378 C 717.695 271.545, 718.728 272.725, 719.008 273 C 720.150 274.125, 724.787 283.679, 725.341 286.049 L 725.937 288.597 763.254 288.549 L 800.571 288.500 798.347 284.500 C 797.124 282.300, 794.907 276.450, 793.421 271.500 C 790.994 263.417, 790.711 260.871, 790.642 246.500 C 790.568 231, 790.657 230.281, 793.486 223.500 C 796.429 216.447, 799.018 211.914, 803.126 206.625 C 814.411 192.095, 816.973 185.292, 816.989 169.815 C 817.003 155.706, 813.072 137.417, 810.523 139.733 C 810.059 140.155, 810.001 139.941, 810.393 139.258 C 811.177 137.896, 805.540 129, 803.893 129 C 803.337 129, 803.086 128.662, 803.336 128.250 C 803.586 127.838, 803.162 126.920, 802.395 126.211 C 801.628 125.501, 801 125.264, 801 125.683 C 801 126.102, 800.365 125.538, 799.588 124.429 C 797.877 121.987, 785.238 113.313, 778.947 110.263 C 767.324 104.629, 755.343 102.802, 738.500 104.094 M 728.500 110.624 C 724.650 111.402, 718.002 112.706, 713.727 113.520 C 703.764 115.418, 694.533 119.621, 689.212 124.683 C 686.902 126.881, 684.747 128.414, 684.423 128.089 C 684.099 127.765, 683.971 127.950, 684.139 128.500 C 684.307 129.050, 683.234 131.540, 681.755 134.033 C 670.275 153.376, 671.540 175.653, 684.500 182.414 C 689.296 184.915, 696.070 185.051, 716 183.045 C 734.256 181.208, 739.100 181.905, 746.059 187.366 L 751.500 191.636 751.276 201.879 C 751.006 214.203, 751.937 216.136, 762.749 225.722 C 768.403 230.735, 769.897 232.678, 770.437 235.722 C 771.588 242.213, 772.028 243, 774.508 243 C 775.814 243, 777.165 242.543, 777.510 241.984 C 777.856 241.425, 778.670 241.272, 779.319 241.644 C 779.969 242.016, 780.162 241.948, 779.748 241.491 C 779.334 241.035, 779.660 239.928, 780.471 239.032 C 782.732 236.534, 784.886 229.567, 785.624 222.369 C 786.491 213.900, 789.156 209.851, 801.987 197.506 C 808.411 191.324, 812 181.635, 812 170.474 C 812 161.638, 808.955 146.632, 805.936 140.586 C 803.770 136.249, 793.528 125, 791.745 125 C 791.270 125, 791.206 124.438, 791.601 123.750 C 791.997 123.063, 791.991 122.795, 791.588 123.156 C 791.185 123.517, 787.400 121.687, 783.177 119.089 C 778.955 116.492, 771.803 113.160, 767.285 111.684 C 760.139 109.349, 757.536 109.014, 747.285 109.104 C 740.803 109.161, 732.350 109.845, 728.500 110.624 M 733.500 117.765 C 732.950 118.169, 732.002 119.400, 731.393 120.500 C 729.908 123.181, 727.275 123.559, 724.921 121.428 C 723.162 119.836, 722.369 119.798, 715.995 121.001 L 709 122.321 709 126.606 C 709 130.296, 709.382 131.073, 711.750 132.203 C 715.575 134.028, 716.148 138.674, 712.656 139.550 C 709.974 140.223, 706.781 138.917, 703.250 135.701 C 701.648 134.242, 701 132.523, 701 129.734 L 701 125.816 697.765 127.705 C 695.985 128.745, 692.998 131.599, 691.126 134.047 L 687.722 138.500 692.282 138.802 C 697.373 139.138, 699.488 140.886, 698.515 143.952 C 697.943 145.755, 697.041 146, 690.978 146 L 684.091 146 683.468 149.750 C 683.126 151.813, 682.454 154.738, 681.975 156.250 C 681.186 158.743, 681.335 159, 683.573 159 C 685.314 159, 686.391 158.189, 687.224 156.250 C 688.821 152.531, 688.695 152.636, 691.831 152.419 C 694.318 152.246, 694.630 152.579, 694.835 155.620 C 694.961 157.486, 694.571 159.934, 693.968 161.060 C 692.572 163.668, 687.161 166.991, 684.302 166.996 C 682.304 167, 682.197 167.268, 683.130 169.942 C 684.647 174.295, 686.740 175.738, 688.347 173.540 C 690.039 171.227, 693.245 171.914, 694.500 174.858 C 695.432 177.046, 695.873 177.159, 701 176.530 C 704.025 176.159, 712.125 175.325, 719 174.678 C 725.875 174.030, 731.388 173.162, 731.250 172.750 C 730.664 170.993, 731.113 170.099, 732.859 169.545 C 735.743 168.629, 738 169.974, 738 172.607 C 738 174.045, 738.586 175, 739.469 175 C 741.409 175, 748.547 178.749, 750.045 180.554 C 750.695 181.337, 751.695 181.688, 752.268 181.334 C 752.840 180.981, 753.019 181.159, 752.666 181.732 C 752.312 182.305, 754.599 184.895, 757.749 187.488 L 763.475 192.202 764.642 189.343 C 766.690 184.324, 769.507 182.626, 776.531 182.179 C 785.731 181.593, 788 182.349, 788 186 C 788 189.365, 786.927 189.820, 778 190.241 C 772.608 190.495, 772.494 190.563, 772.191 193.695 C 771.901 196.687, 772.151 196.964, 776.100 198.027 C 786.067 200.711, 797.632 194.615, 801.289 184.750 C 801.825 183.302, 801.358 183, 798.576 183 C 795.476 183, 794 181.706, 794 178.990 C 794 177.048, 797.374 175, 800.571 175 C 803.540 175, 804 174.673, 804 172.557 C 804 170.409, 803.500 170.078, 799.852 169.807 C 791.977 169.224, 791.887 162.786, 799.745 162.198 C 804.197 161.865, 804.039 162.560, 801.844 153 C 800.759 148.274, 797.202 140.243, 795.814 139.385 C 795.366 139.108, 795 139.843, 795 141.018 C 795 142.193, 793.705 144.449, 792.122 146.032 C 790.539 147.615, 789.392 149.058, 789.573 149.240 C 789.754 149.421, 787.968 149.601, 785.605 149.640 C 781.313 149.711, 781.308 149.707, 781.308 146.057 C 781.308 143.166, 781.710 142.372, 783.234 142.257 C 786.552 142.007, 788.003 139.966, 787.945 135.628 C 787.900 132.287, 787.328 131.056, 784.945 129.174 L 782 126.848 782 130.095 C 782 133.952, 779.508 137.121, 777.156 136.256 C 774.561 135.300, 774.032 133.903, 774.015 127.957 L 774 122.413 766.500 119.789 L 759 117.165 759 121.083 C 759 124.248, 759.360 125, 760.878 125 C 761.910 125, 763.195 125.563, 763.733 126.250 C 765.082 127.974, 766.022 132.131, 764.907 131.442 C 764.408 131.134, 764 131.359, 764 131.941 C 764 132.569, 761.556 133, 758 133 C 754.444 133, 752 132.569, 752 131.941 C 752 131.359, 751.663 131.092, 751.250 131.349 C 750.837 131.606, 750.648 128.482, 750.829 124.408 L 751.158 117 748.079 117 C 745.468 117, 745 117.377, 745 119.481 C 745 121.278, 744.326 122.131, 742.557 122.575 C 739.360 123.378, 738 122.442, 738 119.441 C 738 116.991, 735.713 116.139, 733.500 117.765 M 726.302 130.012 C 723.135 131.287, 720.837 136.371, 721.195 141.306 C 721.480 145.227, 721.694 145.500, 724.486 145.500 C 726.705 145.500, 727.550 144.986, 727.775 143.500 C 728.800 136.730, 728.633 136.880, 734.781 137.201 L 740.500 137.500 741 141.500 C 741.441 145.027, 741.842 145.539, 744.391 145.830 C 746.034 146.018, 747.647 145.586, 748.126 144.830 C 750.690 140.787, 747.248 131.805, 742.434 129.975 C 739.293 128.781, 729.302 128.804, 726.302 130.012 M 761.027 141.819 C 757.121 145.725, 756.313 149.335, 758.375 153.661 C 761.553 160.325, 775 162.696, 775 156.593 C 775 153.496, 773.133 152, 769.269 152 C 762.763 152, 764.181 146.359, 770.826 145.806 C 774.174 145.527, 774.500 145.233, 774.500 142.500 C 774.500 139.584, 774.352 139.491, 769.226 139.197 C 764.527 138.927, 763.634 139.212, 761.027 141.819 M 731.129 143.401 C 731.017 144.006, 730.674 146.863, 730.366 149.750 C 729.859 154.515, 729.579 155, 727.338 155 C 723.138 155, 720.951 156.770, 721.195 159.971 C 721.411 162.815, 721.499 162.855, 727.133 162.673 C 731.647 162.527, 733.393 161.979, 735.426 160.070 C 737.737 157.898, 738 156.903, 738 150.326 C 738 146.297, 737.663 142.930, 737.250 142.843 C 734.233 142.214, 731.300 142.481, 731.129 143.401 M 703.794 148.750 C 701.592 151.097, 701.213 152.414, 701.208 157.735 C 701.202 163.589, 701.412 164.155, 704.636 166.985 C 710.988 172.562, 721.619 170.167, 717.782 164.023 C 716.878 162.575, 715.450 162, 712.759 162 C 709.057 162, 709 161.941, 709 158.107 C 709 153.997, 710.083 153, 714.547 153 C 715.931 153, 717.393 152.135, 718.034 150.936 C 719.791 147.654, 717.623 146, 711.565 146 C 707.195 146, 705.966 146.435, 703.794 148.750 M 745.547 156.075 C 745.814 156.508, 745.575 157.144, 745.016 157.490 C 742.894 158.801, 743.917 165.476, 746.762 168.884 C 751.381 174.417, 762 174.437, 762 168.913 C 762 166.631, 759.110 165, 755.066 165 C 752.277 165, 751.999 164.707, 751.985 161.750 C 751.976 159.963, 751.639 158.005, 751.235 157.399 C 750.407 156.158, 744.790 154.851, 745.547 156.075 M 782.426 156.430 C 781.182 157.340, 780.400 159.536, 780.038 163.131 C 779.599 167.492, 779.131 168.534, 777.500 168.779 C 771.376 169.695, 770.868 170.016, 771.187 172.766 C 771.620 176.493, 775.547 177.800, 780.952 176.016 C 783.178 175.281, 785 174.275, 785 173.781 C 785 173.286, 785.520 173.203, 786.155 173.595 C 786.844 174.021, 787.039 173.871, 786.638 173.224 C 786.269 172.627, 786.425 171.856, 786.984 171.510 C 787.543 171.165, 788 167.774, 788 163.976 C 788 158.265, 787.678 156.898, 786.138 156.074 C 784.813 155.365, 783.743 155.468, 782.426 156.430 M 758.899 201.767 C 758.569 210.653, 758.828 211.253, 765.764 217.675 C 769.432 221.071, 772.797 223.626, 773.241 223.351 C 773.686 223.076, 773.943 223.222, 773.812 223.676 C 773.682 224.129, 774.191 225.615, 774.945 226.978 C 776.249 229.337, 776.351 229.361, 777.087 227.478 C 777.512 226.390, 777.891 223.315, 777.930 220.645 C 777.974 217.600, 778.917 213.965, 780.459 210.895 L 782.917 206 779.209 205.989 C 774.645 205.976, 767.734 203.939, 762.749 201.140 L 759 199.034 758.899 201.767 M 471 337.500 L 471 342 476.500 342 L 482 342 482 337.500 L 482 333 476.500 333 L 471 333 471 337.500 M 514 341.073 L 514 349.145 511.365 347.073 C 509.430 345.550, 507.280 345, 503.265 345 C 498.417 345, 497.428 345.372, 494.503 348.297 C 491.132 351.668, 489.011 357.153, 489.011 362.500 C 489.011 367.847, 491.132 373.332, 494.503 376.703 C 497.428 379.628, 498.417 380, 503.265 380 C 507.280 380, 509.430 379.450, 511.365 377.927 C 513.549 376.209, 514 376.124, 514 377.427 C 514 378.667, 515.165 379, 519.500 379 L 525 379 525 356 L 525 333 519.500 333 L 514 333 514 341.073 M 391 357 L 391 379 407 379 L 423 379 423 375 L 423 371 413 371 L 403 371 403 365.500 L 403 360 412 360 L 421 360 421 356 L 421 352 412 352 L 403 352 403 347.500 L 403 343 412.500 343 L 422 343 422 339 L 422 335 406.500 335 L 391 335 391 357 M 738.640 347.304 C 736.713 349.121, 734.902 351.708, 734.615 353.054 C 734.328 354.399, 733.900 364.500, 733.664 375.500 C 733.182 397.998, 731.330 409.772, 725.452 427.718 C 713.577 463.968, 688.064 496.676, 655.953 516.817 C 632.454 531.555, 602.873 540.821, 574.750 542.251 L 568 542.595 567.956 514.047 C 567.923 492.827, 567.569 484.537, 566.573 481.748 C 561.865 468.556, 545.627 461.843, 532.975 467.857 C 529.737 469.397, 519.299 479.182, 496.282 502.254 C 458.599 540.028, 459.020 539.427, 459.020 555.500 C 459.020 571.460, 458.784 571.119, 494.819 607.337 C 511.694 624.297, 527.381 639.485, 529.680 641.087 C 533.573 643.800, 534.504 644, 543.234 644 C 551.877 644, 552.968 643.772, 557.217 641.078 C 560.018 639.301, 562.936 636.263, 564.659 633.328 C 567.225 628.957, 567.528 627.446, 567.851 617.371 C 568.142 608.307, 567.883 605.555, 566.455 602.546 C 563.371 596.047, 556.188 593.393, 549.838 596.407 C 545.062 598.673, 542.803 603.024, 542.228 611.059 L 541.744 617.822 513.450 589.661 C 495.004 571.301, 484.917 560.541, 484.468 558.743 C 482.774 551.958, 483.594 550.892, 513.500 521 L 542 492.513 542 518.207 C 542 533.006, 542.463 546.061, 543.092 548.994 C 544.576 555.915, 549.288 561.878, 555.936 565.250 C 560.673 567.652, 562.506 567.999, 570.429 567.992 C 650.087 567.920, 724.117 513.655, 749.946 436.404 C 757.301 414.405, 758.269 407.924, 758.754 377.435 L 759.185 350.370 755.558 347.185 C 752.537 344.533, 751.111 344, 747.036 344 C 742.872 344, 741.620 344.493, 738.640 347.304 M 539.990 347.250 C 533.945 351.364, 532.500 354.306, 532.500 362.500 C 532.500 370.441, 533.797 373.266, 539.344 377.407 C 542.747 379.948, 553.965 380.774, 561.665 379.050 L 567 377.857 567 373.428 C 567 368.501, 566.757 368.368, 561.654 370.500 C 556.337 372.722, 548.470 372.470, 546 370 C 544.900 368.900, 544 367.325, 544 366.500 C 544 365.250, 546 365, 556 365 L 568 365 568 360.734 C 568 355.400, 565.289 350.177, 561.001 347.250 C 558.334 345.430, 556.328 345, 550.500 345 C 544.675 345, 542.663 345.431, 539.990 347.250 M 589.635 347.073 C 587.451 348.791, 587 348.876, 587 347.573 C 587 346.333, 585.835 346, 581.500 346 L 576 346 576 362.500 L 576 379 581.500 379 L 587 379 587 369.450 C 587 358.006, 588.510 354, 592.826 354 C 597.457 354, 598 355.438, 598 367.700 L 598 379 604.133 379 L 610.265 379 609.797 366.250 C 609.139 348.318, 607.172 345, 597.201 345 C 593.726 345, 591.491 345.612, 589.635 347.073 M 625.450 346.407 C 612.870 351.886, 613.017 373.349, 625.671 378.636 C 628.999 380.026, 639.682 380.460, 643.750 379.370 C 645.702 378.847, 646 378.106, 646 373.776 C 646 369.389, 645.789 368.882, 644.250 369.577 C 643.288 370.012, 640.200 370.548, 637.389 370.768 C 632.784 371.129, 632.066 370.900, 630.139 368.450 C 627.395 364.961, 627.403 360.028, 630.160 356.524 C 632.126 354.024, 632.773 353.822, 637.410 354.259 C 640.209 354.523, 643.288 355.071, 644.250 355.476 C 645.781 356.122, 646 355.591, 646 351.224 C 646 346.894, 645.702 346.153, 643.750 345.630 C 639.769 344.563, 628.594 345.038, 625.450 346.407 M 659.990 347.250 C 653.945 351.364, 652.500 354.306, 652.500 362.500 C 652.500 370.441, 653.797 373.266, 659.344 377.407 C 662.747 379.948, 673.965 380.774, 681.665 379.050 L 687 377.857 687 373.428 C 687 368.501, 686.757 368.368, 681.654 370.500 C 676.337 372.722, 668.470 372.470, 666 370 C 664.900 368.900, 664 367.325, 664 366.500 C 664 365.250, 666 365, 676 365 L 688 365 688 360.734 C 688 355.400, 685.289 350.177, 681.001 347.250 C 678.334 345.430, 676.328 345, 670.500 345 C 664.675 345, 662.663 345.431, 659.990 347.250 M 428.439 349.203 C 429.197 351.016, 432.147 358.482, 434.996 365.794 L 440.175 379.087 446.638 378.794 L 453.102 378.500 459.431 362.500 L 465.761 346.500 460.223 346.195 C 456.471 345.989, 454.424 346.312, 453.873 347.195 C 453.426 347.913, 451.612 352.696, 449.842 357.824 L 446.623 367.147 442.941 356.824 L 439.259 346.500 433.161 346.203 L 427.063 345.906 428.439 349.203 M 471 362.500 L 471 379 476.500 379 L 482 379 482 362.500 L 482 346 476.500 346 L 471 346 471 362.500 M 545.557 355.223 C 544.701 356.445, 544 357.795, 544 358.223 C 544 358.650, 546.700 359, 550 359 C 555.111 359, 556 358.733, 556 357.200 C 556 352.672, 548.357 351.225, 545.557 355.223 M 665.557 355.223 C 664.701 356.445, 664 357.795, 664 358.223 C 664 358.650, 666.700 359, 670 359 C 675.111 359, 676 358.733, 676 357.200 C 676 352.672, 668.357 351.225, 665.557 355.223 M 502.872 355.654 C 502.098 356.587, 501.500 359.569, 501.500 362.500 C 501.500 368.779, 503.093 371, 507.597 371 C 510.297 371, 511.245 370.427, 512.474 368.050 C 513.313 366.427, 514 363.930, 514 362.500 C 514 361.070, 513.313 358.573, 512.474 356.950 C 511.245 354.573, 510.297 354, 507.597 354 C 505.699 354, 503.650 354.717, 502.872 355.654 M 391 400.500 C 391 410.944, 391.247 413, 392.500 413 C 393.608 413, 394 411.841, 394 408.565 C 394 401.748, 395.399 399, 398.868 399 C 402.365 399, 403 400.318, 403 407.582 C 403 412.333, 403.246 413, 405 413 C 406.788 413, 406.998 412.338, 406.985 406.750 C 406.977 403.313, 406.394 399.375, 405.690 398 C 404.566 395.807, 403.769 395.505, 399.205 395.543 L 394 395.585 394 391.793 C 394 389.088, 393.570 388, 392.500 388 C 391.247 388, 391 390.056, 391 400.500 M 516 390 C 516 391.333, 516.667 392, 518 392 C 519.333 392, 520 391.333, 520 390 C 520 388.667, 519.333 388, 518 388 C 516.667 388, 516 388.667, 516 390 M 569 400.500 C 569 410.944, 569.247 413, 570.500 413 C 571.608 413, 572 411.841, 572 408.565 C 572 401.748, 573.399 399, 576.868 399 C 580.365 399, 581 400.318, 581 407.582 C 581 412.333, 581.246 413, 583 413 C 584.788 413, 584.998 412.338, 584.985 406.750 C 584.977 403.313, 584.394 399.375, 583.690 398 C 582.566 395.807, 581.769 395.505, 577.205 395.543 L 572 395.585 572 391.793 C 572 389.088, 571.570 388, 570.500 388 C 569.247 388, 569 390.056, 569 400.500 M 620 400.500 C 620 412.333, 620.107 413, 622 413 C 623.893 413, 624 412.333, 624 400.500 C 624 388.667, 623.893 388, 622 388 C 620.107 388, 620 388.667, 620 400.500 M 556 392.500 C 556 394.056, 555.433 395, 554.500 395 C 553.675 395, 553 395.675, 553 396.500 C 553 397.325, 553.655 398, 554.456 398 C 555.570 398, 555.981 399.704, 556.206 405.250 L 556.500 412.500 561.250 412.805 C 564.844 413.035, 566 412.762, 566 411.680 C 566 410.891, 564.655 409.981, 563 409.650 C 560.101 409.070, 560 408.864, 560 403.525 C 560 398.053, 560.029 398, 563 398 C 565 398, 566 397.500, 566 396.500 C 566 395.500, 565 395, 563 395 C 560.467 395, 560 394.611, 560 392.500 C 560 390.667, 559.467 390, 558 390 C 556.533 390, 556 390.667, 556 392.500 M 411.015 401.250 C 411.023 404.688, 411.598 408.625, 412.293 410 C 413.435 412.260, 414.202 412.518, 420.278 412.687 L 427 412.873 427 403.937 C 427 395.736, 426.839 395, 425.046 395 C 423.329 395, 423.055 395.820, 422.796 401.750 C 422.506 408.371, 422.445 408.506, 419.609 408.830 C 415.864 409.258, 415.034 407.798, 415.015 400.750 C 415.002 395.672, 414.766 395, 413 395 C 411.212 395, 411.002 395.662, 411.015 401.250 M 433 404.179 C 433 411.353, 433.280 413, 434.500 413 C 435.608 413, 436 411.841, 436 408.565 C 436 401.666, 437.449 398.804, 440.750 399.184 C 443.413 399.490, 443.509 399.714, 443.796 406.250 C 444.055 412.180, 444.329 413, 446.046 413 C 447.763 413, 448 412.288, 448 407.122 C 448 400.667, 449.334 398.626, 453.195 399.173 C 455.307 399.473, 455.525 400.066, 455.796 406.250 C 456.055 412.180, 456.329 413, 458.046 413 C 459.793 413, 460 412.281, 460 406.223 C 460 397.542, 458.415 395, 453.002 395 C 450.866 395, 448.826 395.472, 448.470 396.049 C 448.021 396.775, 447.437 396.778, 446.570 396.058 C 445.881 395.486, 442.546 395.095, 439.159 395.188 L 433 395.358 433 404.179 M 465 397 C 465 398.728, 465.667 399, 469.893 399 C 473.320 399, 474.958 399.449, 475.362 400.500 C 475.824 401.704, 474.997 402, 471.169 402 C 465.580 402, 464 403.229, 464 407.578 C 464 412.027, 465.705 412.996, 473.341 412.881 L 480 412.781 480 407.456 C 480 401.802, 478.646 397.031, 476.687 395.786 C 476.034 395.370, 473.137 395.024, 470.250 395.015 C 465.662 395.002, 465 395.252, 465 397 M 485 404.134 C 485 411.348, 485.279 413, 486.500 413 C 487.608 413, 488 411.841, 488 408.565 C 488 401.748, 489.399 399, 492.868 399 C 496.365 399, 497 400.318, 497 407.582 C 497 412.333, 497.246 413, 499 413 C 500.788 413, 500.998 412.338, 500.985 406.750 C 500.977 403.313, 500.401 399.375, 499.705 398 C 498.554 395.728, 497.827 395.489, 491.720 395.384 L 485 395.267 485 404.134 M 516 404 C 516 412.333, 516.148 413, 518 413 C 519.852 413, 520 412.333, 520 404 C 520 395.667, 519.852 395, 518 395 C 516.148 395, 516 395.667, 516 404 M 525 404.134 C 525 411.348, 525.279 413, 526.500 413 C 527.608 413, 528 411.841, 528 408.565 C 528 401.748, 529.399 399, 532.868 399 C 536.365 399, 537 400.318, 537 407.582 C 537 412.333, 537.246 413, 539 413 C 540.788 413, 540.998 412.338, 540.985 406.750 C 540.977 403.313, 540.401 399.375, 539.705 398 C 538.554 395.728, 537.827 395.489, 531.720 395.384 L 525 395.267 525 404.134 M 591.825 396.038 C 589.068 397.647, 587.650 403.410, 589.003 407.508 C 590.382 411.687, 592.497 413, 597.852 413 C 603.091 413, 605 412.187, 605 409.956 C 605 408.428, 604.430 408.218, 601.554 408.685 C 597.086 409.410, 593 408.357, 593 406.481 C 593 405.325, 594.426 405, 599.500 405 C 605.959 405, 606 404.982, 606 402.189 C 606 397.838, 602.707 394.994, 597.711 395.030 C 595.395 395.047, 592.746 395.501, 591.825 396.038 M 629.918 396.865 C 628.060 398.370, 627.615 399.713, 627.615 403.824 C 627.615 410.707, 629.710 413, 636 413 C 642.223 413, 644.500 410.589, 644.500 404 C 644.500 397.589, 642.186 395, 636.456 395 C 633.814 395, 631.356 395.701, 629.918 396.865 M 649.918 396.865 C 648.060 398.370, 647.615 399.713, 647.615 403.824 C 647.615 410.707, 649.710 413, 656 413 C 662.223 413, 664.500 410.589, 664.500 404 C 664.500 397.589, 662.186 395, 656.456 395 C 653.814 395, 651.356 395.701, 649.918 396.865 M 669 407.679 C 669 417.964, 669.248 420, 670.500 420 C 671.574 420, 672 418.905, 672 416.147 L 672 412.294 676.751 412.750 C 680.665 413.126, 681.838 412.836, 683.406 411.104 C 685.915 408.331, 686.084 401.304, 683.727 397.707 C 682.077 395.189, 681.505 395.013, 675.477 395.180 L 669 395.358 669 407.679 M 593.714 399.619 C 592.070 401.263, 593.268 402, 597.583 402 C 600.802 402, 602.044 401.628, 601.756 400.750 C 601.306 399.380, 594.860 398.473, 593.714 399.619 M 632 401.500 C 630.468 405.530, 632.317 409, 635.997 409 C 638.276 409, 639.330 408.370, 640.182 406.500 C 641.938 402.646, 639.903 399, 635.997 399 C 633.668 399, 632.727 399.588, 632 401.500 M 652 401.500 C 650.468 405.530, 652.317 409, 655.997 409 C 658.276 409, 659.330 408.370, 660.182 406.500 C 661.938 402.646, 659.903 399, 655.997 399 C 653.668 399, 652.727 399.588, 652 401.500 M 673.398 400.405 C 673.102 401.177, 673.003 403.315, 673.180 405.155 C 673.463 408.119, 673.871 408.536, 676.751 408.813 C 679.460 409.075, 680.163 408.700, 680.976 406.563 C 682.534 402.466, 680.709 399, 676.993 399 C 675.291 399, 673.698 399.622, 673.398 400.405 M 470.500 405.878 C 466.718 406.687, 466.608 408.398, 470.310 408.822 C 473.063 409.138, 476 407.618, 476 405.878 C 476 404.914, 475.007 404.914, 470.500 405.878 M 255.329 437.941 C 251.513 440.268, 247 447.602, 247 451.476 C 247 453.361, 245.670 455.720, 242.928 458.694 C 238.113 463.917, 234.023 472.198, 234.010 476.750 C 233.997 481.020, 232.147 480.947, 227.700 476.500 C 223.032 471.832, 217.696 471.613, 213.106 475.901 C 210.405 478.424, 210 479.478, 210 483.978 C 210 488.365, 210.445 489.599, 212.923 492.077 C 215.283 494.436, 216.709 495, 220.319 495 C 224.180 495, 225.214 494.520, 227.866 491.500 C 231.920 486.882, 234 486.903, 234 491.562 C 234 496.342, 238.035 504.593, 242.796 509.548 C 245.650 512.518, 246.833 514.718, 247.251 517.833 C 247.980 523.269, 252.134 528.703, 257.384 531.087 C 260.929 532.697, 264.103 532.959, 280.250 532.978 L 299 533 299 536 L 299 539 289.250 539.004 C 278.850 539.008, 273.860 540.716, 272.594 544.705 C 272.272 545.718, 269.294 548.937, 265.977 551.857 C 257.848 559.012, 251 573.022, 251 582.496 C 251 585.093, 250.400 585.916, 247.500 587.299 L 244 588.968 244 596.442 L 244 603.916 248.464 606.532 C 254.381 609.999, 257.396 609.576, 257.816 605.221 C 258.093 602.342, 257.757 601.811, 255.066 600.873 C 252.475 599.970, 252 599.290, 252 596.486 C 252 592.955, 253.473 591.744, 256.118 593.100 C 257.200 593.654, 257.575 594.772, 257.250 596.470 C 256.652 599.598, 258.498 602, 261.500 602 C 264.871 602, 266.152 599.723, 265.808 594.342 C 265.538 590.122, 265.094 589.280, 262.210 587.514 C 259.135 585.632, 258.944 585.198, 259.299 580.891 C 259.772 575.152, 264.604 564.788, 269.271 559.500 L 272.802 555.500 275.393 557.917 C 277.285 559.682, 279.471 560.457, 283.492 560.791 L 289 561.248 289 571.808 C 289 583.296, 290.541 588.342, 295.462 592.965 C 297.907 595.261, 297.907 595.262, 296.077 598.881 C 293.962 603.062, 291.719 612.736, 292.552 614.084 C 292.870 614.599, 290.534 615, 287.207 615 C 280.249 615, 275.771 617.491, 272.852 622.984 C 270.936 626.590, 270.425 632.546, 271.841 634.777 C 272.454 635.743, 276.406 635.987, 288.076 635.777 L 303.500 635.500 303.786 626.402 C 304.012 619.189, 303.753 617.040, 302.536 616.029 C 300.588 614.414, 300.678 611.892, 302.927 605 L 304.722 599.500 310 599.500 L 315.278 599.500 317.073 605 C 319.322 611.892, 319.412 614.414, 317.464 616.029 C 316.247 617.040, 315.988 619.189, 316.214 626.402 L 316.500 635.500 331.924 635.777 C 343.594 635.987, 347.546 635.743, 348.159 634.777 C 349.575 632.546, 349.064 626.590, 347.148 622.984 C 344.229 617.491, 339.751 615, 332.793 615 C 329.466 615, 327.130 614.599, 327.448 614.084 C 328.281 612.736, 326.038 603.062, 323.923 598.881 C 322.093 595.262, 322.093 595.261, 324.538 592.965 C 329.459 588.342, 331 583.296, 331 571.808 L 331 561.248 336.508 560.791 C 340.529 560.457, 342.715 559.682, 344.607 557.917 L 347.198 555.500 350.729 559.500 C 355.396 564.788, 360.228 575.152, 360.701 580.891 C 361.056 585.197, 360.865 585.632, 357.790 587.515 C 354.858 589.310, 354.468 590.081, 354.203 594.604 C 353.843 600.774, 355.587 602.886, 359.810 601.393 C 361.973 600.628, 362.511 599.796, 362.557 597.149 C 362.616 593.716, 364.365 591.819, 366.659 592.700 C 367.405 592.986, 368 594.677, 368 596.509 C 368 599.287, 367.519 599.972, 364.934 600.873 C 362.243 601.811, 361.907 602.342, 362.184 605.221 C 362.604 609.576, 365.619 609.999, 371.536 606.532 L 376 603.916 376 596.442 L 376 588.968 372.500 587.299 C 369.600 585.916, 369 585.093, 369 582.496 C 369 573.079, 362.150 559.011, 354.126 551.948 C 350.866 549.077, 347.702 545.642, 347.097 544.313 C 345.407 540.604, 340.254 539, 330.032 539 L 321 539 321 536 L 321 533 339.750 532.978 C 355.897 532.959, 359.071 532.697, 362.616 531.087 C 367.866 528.703, 372.020 523.269, 372.749 517.833 C 373.167 514.718, 374.350 512.518, 377.204 509.548 C 381.965 504.593, 386 496.342, 386 491.562 C 386 486.903, 388.080 486.882, 392.134 491.500 C 394.786 494.520, 395.820 495, 399.681 495 C 403.291 495, 404.717 494.436, 407.077 492.077 C 409.555 489.599, 410 488.365, 410 483.978 C 410 479.478, 409.595 478.424, 406.894 475.901 C 402.304 471.613, 396.968 471.832, 392.300 476.500 C 387.853 480.947, 386.003 481.020, 385.990 476.750 C 385.977 472.198, 381.887 463.917, 377.072 458.694 C 374.233 455.614, 373 453.385, 373 451.334 C 373 447.439, 367.880 439.506, 364.107 437.555 C 361.500 436.207, 354.257 436, 309.800 436.004 C 260.851 436.007, 258.355 436.096, 255.329 437.941 M 261.329 444.458 C 259.585 445.216, 257.672 446.744, 257.079 447.853 C 256.367 449.183, 256 461.643, 256 484.511 L 256 519.154 258.923 522.077 L 261.846 525 310 525 L 358.154 525 361.077 522.077 L 364 519.154 364 484.511 C 364 461.608, 363.634 449.184, 362.920 447.850 C 360.441 443.218, 358 442.997, 309.782 443.039 C 273.556 443.070, 263.866 443.354, 261.329 444.458 M 262.200 450.200 C 260.482 451.918, 260.482 516.082, 262.200 517.800 C 263.928 519.528, 356.072 519.528, 357.800 517.800 C 359.518 516.082, 359.518 451.918, 357.800 450.200 C 356.072 448.472, 263.928 448.472, 262.200 450.200 M 269 484 L 269 511 310 511 L 351 511 351 484 L 351 457 310 457 L 269 457 269 484 M 286.881 464.503 C 282.326 466.979, 281 471.476, 281 484.451 C 281 497.595, 282.042 500.835, 287.299 504.040 C 292.296 507.088, 295.651 506.585, 300.118 502.118 L 304 498.235 304 484.018 L 304 469.800 300.600 466.400 C 297.885 463.685, 296.424 463.008, 293.350 463.040 C 291.233 463.062, 288.322 463.720, 286.881 464.503 M 319.400 466.400 L 316 469.800 316 484.018 L 316 498.235 319.882 502.118 C 324.180 506.415, 327.186 506.989, 332.094 504.451 C 337.730 501.537, 338.992 497.917, 338.996 484.651 C 339 471.302, 337.681 466.921, 332.915 464.456 C 327.952 461.889, 323.232 462.568, 319.400 466.400 M 245.692 467.750 C 245.458 468.163, 244.476 470.921, 243.510 473.879 C 241.291 480.675, 241.877 491.561, 244.810 498 L 246.859 502.500 246.929 484.750 C 246.995 468.261, 246.814 465.774, 245.692 467.750 M 373.071 484.550 L 373.141 502.500 375.190 498 C 378.116 491.574, 378.708 480.680, 376.500 473.879 C 375.540 470.921, 374.359 468.072, 373.877 467.550 C 373.372 467.003, 373.030 474.209, 373.071 484.550 M 290.494 473.184 C 290.177 474.458, 290.048 480.225, 290.208 486 C 290.488 496.068, 290.594 496.513, 292.780 496.824 L 295.061 497.147 294.780 484.336 C 294.536 473.165, 294.281 471.482, 292.786 471.196 C 291.675 470.983, 290.868 471.683, 290.494 473.184 M 325.667 471.667 C 325.300 472.033, 325 477.915, 325 484.736 C 325 497.026, 325.020 497.136, 327.250 496.820 C 329.398 496.514, 329.513 496.025, 329.792 486 C 329.952 480.225, 329.831 474.488, 329.523 473.250 C 328.982 471.080, 327.047 470.286, 325.667 471.667 M 217.441 483.096 C 217.068 483.699, 217.492 484.920, 218.382 485.810 C 219.873 487.301, 220.127 487.301, 221.618 485.810 C 223.508 483.920, 222.693 482, 220 482 C 218.965 482, 217.813 482.493, 217.441 483.096 M 397.441 483.096 C 397.068 483.699, 397.492 484.920, 398.382 485.810 C 399.873 487.301, 400.127 487.301, 401.618 485.810 C 403.508 483.920, 402.693 482, 400 482 C 398.965 482, 397.813 482.493, 397.441 483.096 M 307 536 C 307 538.667, 307.333 539, 310 539 C 312.667 539, 313 538.667, 313 536 C 313 533.333, 312.667 533, 310 533 C 307.333 533, 307 533.333, 307 536 M 280.362 548.500 C 278.843 552.456, 280.427 553, 293.469 553 L 306 553 306 550 L 306 547 293.469 547 C 283.252 547, 280.831 547.277, 280.362 548.500 M 314 550 L 314 553.060 326.750 552.780 L 339.500 552.500 339.500 550 L 339.500 547.500 326.750 547.220 L 314 546.940 314 550 M 297 571.132 C 297 579.563, 297.340 581.814, 299.027 584.544 C 303.522 591.816, 316.478 591.816, 320.973 584.544 C 322.660 581.814, 323 579.563, 323 571.132 L 323 561 310 561 L 297 561 297 571.132 M 283.387 623.688 C 282.225 623.916, 280.772 625.205, 280.158 626.552 L 279.043 629 287.021 629 L 295 629 295 626 C 295 623.069, 294.891 623.003, 290.250 623.136 C 287.637 623.211, 284.549 623.459, 283.387 623.688 M 325 626 L 325 629 332.979 629 L 340.957 629 339.865 626.602 C 338.700 624.045, 335.511 623, 328.875 623 C 325.236 623, 325 623.183, 325 626" stroke="none" fill="black" fill-rule="evenodd"/>
</svg>